<mxfile host="app.diagrams.net" modified="2024-02-15T12:03:41.373Z" agent="Mozilla/5.0 (Windows NT 10.0; Win64; x64) AppleWebKit/537.36 (KHTML, like Gecko) Chrome/121.0.0.0 Safari/537.36" etag="vRTbi56CuCZWodBFAhGT" version="23.1.4" type="onedrive" pages="8">
  <diagram name="Home page" id="zt25JcFaLjdhWgld8VqI">
    <mxGraphModel grid="0" page="0" gridSize="10" guides="1" tooltips="1" connect="1" arrows="1" fold="1" pageScale="1" pageWidth="827" pageHeight="1169" math="0" shadow="0">
      <root>
        <mxCell id="0" />
        <mxCell id="1" parent="0" />
        <mxCell id="d32x63MjvHoc11s_lcRO-1" value="" style="rounded=0;whiteSpace=wrap;html=1;fontSize=16;" vertex="1" parent="1">
          <mxGeometry x="-94" y="-262" width="616" height="746" as="geometry" />
        </mxCell>
        <mxCell id="d32x63MjvHoc11s_lcRO-2" value="Home page" style="text;html=1;strokeColor=none;fillColor=none;align=center;verticalAlign=middle;whiteSpace=wrap;rounded=0;fontSize=16;" vertex="1" parent="1">
          <mxGeometry x="-94" y="-309" width="60" height="30" as="geometry" />
        </mxCell>
        <mxCell id="d32x63MjvHoc11s_lcRO-3" value="" style="rounded=0;whiteSpace=wrap;html=1;fontSize=16;" vertex="1" parent="1">
          <mxGeometry x="-94" y="-262" width="616" height="60" as="geometry" />
        </mxCell>
        <mxCell id="d32x63MjvHoc11s_lcRO-4" value="ICUPhones (Home page button)" style="text;html=1;strokeColor=none;fillColor=none;align=center;verticalAlign=middle;whiteSpace=wrap;rounded=0;fontSize=16;" vertex="1" parent="1">
          <mxGeometry x="-90" y="-251" width="118" height="39" as="geometry" />
        </mxCell>
        <mxCell id="d32x63MjvHoc11s_lcRO-6" value="Contact us" style="text;html=1;strokeColor=none;fillColor=none;align=center;verticalAlign=middle;whiteSpace=wrap;rounded=0;fontSize=16;" vertex="1" parent="1">
          <mxGeometry x="363" y="-247" width="60" height="30" as="geometry" />
        </mxCell>
        <mxCell id="d32x63MjvHoc11s_lcRO-7" value="Login / Sign up" style="text;html=1;strokeColor=none;fillColor=none;align=center;verticalAlign=middle;whiteSpace=wrap;rounded=0;fontSize=16;" vertex="1" parent="1">
          <mxGeometry x="436" y="-247" width="60" height="30" as="geometry" />
        </mxCell>
        <mxCell id="d32x63MjvHoc11s_lcRO-8" value="Basket" style="text;html=1;strokeColor=none;fillColor=none;align=center;verticalAlign=middle;whiteSpace=wrap;rounded=0;fontSize=16;" vertex="1" parent="1">
          <mxGeometry x="293" y="-247" width="60" height="30" as="geometry" />
        </mxCell>
        <mxCell id="d32x63MjvHoc11s_lcRO-10" value="Footer" style="rounded=0;whiteSpace=wrap;html=1;fontSize=16;" vertex="1" parent="1">
          <mxGeometry x="-94" y="402" width="616" height="82" as="geometry" />
        </mxCell>
        <mxCell id="d32x63MjvHoc11s_lcRO-11" value="" style="rounded=0;whiteSpace=wrap;html=1;fontSize=16;" vertex="1" parent="1">
          <mxGeometry x="-58" y="-151" width="550" height="130" as="geometry" />
        </mxCell>
        <mxCell id="d32x63MjvHoc11s_lcRO-12" value="" style="rounded=0;whiteSpace=wrap;html=1;fontSize=16;" vertex="1" parent="1">
          <mxGeometry x="-63" y="34" width="550" height="130" as="geometry" />
        </mxCell>
        <mxCell id="d32x63MjvHoc11s_lcRO-13" value="" style="rounded=0;whiteSpace=wrap;html=1;fontSize=16;" vertex="1" parent="1">
          <mxGeometry x="-61" y="214" width="550" height="130" as="geometry" />
        </mxCell>
        <mxCell id="d32x63MjvHoc11s_lcRO-15" value="Most reviewed" style="text;html=1;strokeColor=none;fillColor=none;align=center;verticalAlign=middle;whiteSpace=wrap;rounded=0;fontSize=16;" vertex="1" parent="1">
          <mxGeometry x="-63" y="-188" width="118" height="30" as="geometry" />
        </mxCell>
        <mxCell id="d32x63MjvHoc11s_lcRO-16" value="See more --&amp;gt; (link)" style="text;html=1;strokeColor=none;fillColor=none;align=center;verticalAlign=middle;whiteSpace=wrap;rounded=0;fontSize=16;" vertex="1" parent="1">
          <mxGeometry x="69" y="-188" width="106" height="30" as="geometry" />
        </mxCell>
        <mxCell id="d32x63MjvHoc11s_lcRO-17" value="Phone" style="rounded=0;whiteSpace=wrap;html=1;fontSize=16;" vertex="1" parent="1">
          <mxGeometry x="-40" y="-151" width="120" height="130" as="geometry" />
        </mxCell>
        <mxCell id="d32x63MjvHoc11s_lcRO-18" value="Phone" style="rounded=0;whiteSpace=wrap;html=1;fontSize=16;" vertex="1" parent="1">
          <mxGeometry x="95" y="-151" width="120" height="130" as="geometry" />
        </mxCell>
        <mxCell id="d32x63MjvHoc11s_lcRO-19" value="Phone" style="rounded=0;whiteSpace=wrap;html=1;fontSize=16;" vertex="1" parent="1">
          <mxGeometry x="227" y="-151" width="120" height="130" as="geometry" />
        </mxCell>
        <mxCell id="d32x63MjvHoc11s_lcRO-20" value="Phone" style="rounded=0;whiteSpace=wrap;html=1;fontSize=16;" vertex="1" parent="1">
          <mxGeometry x="359" y="-151" width="120" height="130" as="geometry" />
        </mxCell>
        <mxCell id="d32x63MjvHoc11s_lcRO-21" value="Phone" style="rounded=0;whiteSpace=wrap;html=1;fontSize=16;" vertex="1" parent="1">
          <mxGeometry x="-40" y="34" width="120" height="130" as="geometry" />
        </mxCell>
        <mxCell id="d32x63MjvHoc11s_lcRO-22" value="Phone" style="rounded=0;whiteSpace=wrap;html=1;fontSize=16;" vertex="1" parent="1">
          <mxGeometry x="95" y="34" width="120" height="130" as="geometry" />
        </mxCell>
        <mxCell id="d32x63MjvHoc11s_lcRO-23" value="Phone" style="rounded=0;whiteSpace=wrap;html=1;fontSize=16;" vertex="1" parent="1">
          <mxGeometry x="227" y="34" width="120" height="130" as="geometry" />
        </mxCell>
        <mxCell id="d32x63MjvHoc11s_lcRO-24" value="Phone" style="rounded=0;whiteSpace=wrap;html=1;fontSize=16;" vertex="1" parent="1">
          <mxGeometry x="359" y="34" width="120" height="130" as="geometry" />
        </mxCell>
        <mxCell id="d32x63MjvHoc11s_lcRO-25" value="Phone accessory" style="rounded=0;whiteSpace=wrap;html=1;fontSize=16;" vertex="1" parent="1">
          <mxGeometry x="-40" y="214" width="120" height="130" as="geometry" />
        </mxCell>
        <mxCell id="d32x63MjvHoc11s_lcRO-26" value="Phone accessory" style="rounded=0;whiteSpace=wrap;html=1;fontSize=16;" vertex="1" parent="1">
          <mxGeometry x="95" y="214" width="120" height="130" as="geometry" />
        </mxCell>
        <mxCell id="d32x63MjvHoc11s_lcRO-27" value="Phone accessory" style="rounded=0;whiteSpace=wrap;html=1;fontSize=16;" vertex="1" parent="1">
          <mxGeometry x="227" y="214" width="120" height="130" as="geometry" />
        </mxCell>
        <mxCell id="d32x63MjvHoc11s_lcRO-28" value="Phone accessory" style="rounded=0;whiteSpace=wrap;html=1;fontSize=16;" vertex="1" parent="1">
          <mxGeometry x="359" y="214" width="120" height="130" as="geometry" />
        </mxCell>
        <mxCell id="d32x63MjvHoc11s_lcRO-30" value="Something similar" style="text;html=1;strokeColor=none;fillColor=none;align=center;verticalAlign=middle;whiteSpace=wrap;rounded=0;fontSize=16;" vertex="1" parent="1">
          <mxGeometry x="-61" y="-3" width="132" height="30" as="geometry" />
        </mxCell>
        <mxCell id="d32x63MjvHoc11s_lcRO-31" value="See more --&amp;gt; (link)" style="text;html=1;strokeColor=none;fillColor=none;align=center;verticalAlign=middle;whiteSpace=wrap;rounded=0;fontSize=16;" vertex="1" parent="1">
          <mxGeometry x="80" y="-5" width="100" height="30" as="geometry" />
        </mxCell>
        <mxCell id="d32x63MjvHoc11s_lcRO-32" value="Common accessories" style="text;html=1;strokeColor=none;fillColor=none;align=center;verticalAlign=middle;whiteSpace=wrap;rounded=0;fontSize=16;" vertex="1" parent="1">
          <mxGeometry x="-61" y="174" width="156" height="30" as="geometry" />
        </mxCell>
        <mxCell id="d32x63MjvHoc11s_lcRO-33" value="See more --&amp;gt; (link)" style="text;html=1;strokeColor=none;fillColor=none;align=center;verticalAlign=middle;whiteSpace=wrap;rounded=0;fontSize=16;" vertex="1" parent="1">
          <mxGeometry x="100" y="174" width="96" height="30" as="geometry" />
        </mxCell>
        <mxCell id="d32x63MjvHoc11s_lcRO-34" value="all of these are links" style="text;html=1;strokeColor=none;fillColor=none;align=center;verticalAlign=middle;whiteSpace=wrap;rounded=0;fontSize=16;" vertex="1" parent="1">
          <mxGeometry x="325" y="-297" width="164" height="30" as="geometry" />
        </mxCell>
      </root>
    </mxGraphModel>
  </diagram>
  <diagram id="AbY6OzLQASMaMPU8tdsU" name="&quot;Contact us&quot;">
    <mxGraphModel grid="0" page="0" gridSize="10" guides="1" tooltips="1" connect="1" arrows="1" fold="1" pageScale="1" pageWidth="827" pageHeight="1169" math="0" shadow="0">
      <root>
        <mxCell id="0" />
        <mxCell id="1" parent="0" />
        <mxCell id="rbCyuyB-ehg8jCkqY63Z-1" value="" style="rounded=0;whiteSpace=wrap;html=1;fontSize=16;" vertex="1" parent="1">
          <mxGeometry x="-45" y="-47" width="521" height="613" as="geometry" />
        </mxCell>
        <mxCell id="rbCyuyB-ehg8jCkqY63Z-2" value="&quot;Contact us&quot;" style="text;html=1;strokeColor=none;fillColor=none;align=center;verticalAlign=middle;whiteSpace=wrap;rounded=0;fontSize=16;" vertex="1" parent="1">
          <mxGeometry x="-43" y="-96" width="101" height="35" as="geometry" />
        </mxCell>
        <mxCell id="rbCyuyB-ehg8jCkqY63Z-3" value="The navbar (full on Home page)" style="rounded=0;whiteSpace=wrap;html=1;fontSize=16;" vertex="1" parent="1">
          <mxGeometry x="-45" y="-47" width="521" height="60" as="geometry" />
        </mxCell>
        <mxCell id="gOTSkg0luQZno4KXuptD-1" style="edgeStyle=none;curved=1;rounded=0;orthogonalLoop=1;jettySize=auto;html=1;exitX=0.5;exitY=0;exitDx=0;exitDy=0;fontSize=12;startSize=8;endSize=8;" edge="1" parent="1" source="mKzCwTj_6UQjqGNAuBny-1" target="rbCyuyB-ehg8jCkqY63Z-1">
          <mxGeometry relative="1" as="geometry" />
        </mxCell>
        <mxCell id="mKzCwTj_6UQjqGNAuBny-1" value="Footer" style="rounded=0;whiteSpace=wrap;html=1;" vertex="1" parent="1">
          <mxGeometry x="-45" y="478" width="521" height="88" as="geometry" />
        </mxCell>
        <mxCell id="gOTSkg0luQZno4KXuptD-2" value="" style="rounded=0;whiteSpace=wrap;html=1;" vertex="1" parent="1">
          <mxGeometry x="-27" y="122" width="489" height="269" as="geometry" />
        </mxCell>
        <mxCell id="gOTSkg0luQZno4KXuptD-3" value="Our customers are very important to us so let us know of anything that may of gone wrong with this form" style="text;html=1;align=center;verticalAlign=middle;whiteSpace=wrap;rounded=0;;fontSize=16;" vertex="1" parent="1">
          <mxGeometry x="-23" y="82" width="463.5" height="21" as="geometry" />
        </mxCell>
        <mxCell id="gOTSkg0luQZno4KXuptD-4" value="Name (optional):" style="text;html=1;align=center;verticalAlign=middle;whiteSpace=wrap;rounded=0;;fontSize=16;" vertex="1" parent="1">
          <mxGeometry x="-12" y="140" width="129" height="30" as="geometry" />
        </mxCell>
        <mxCell id="gOTSkg0luQZno4KXuptD-6" value="" style="rounded=0;whiteSpace=wrap;html=1;" vertex="1" parent="1">
          <mxGeometry x="120" y="145" width="117" height="23" as="geometry" />
        </mxCell>
        <mxCell id="gOTSkg0luQZno4KXuptD-7" value="Email:" style="text;html=1;align=center;verticalAlign=middle;whiteSpace=wrap;rounded=0;;fontSize=16;" vertex="1" parent="1">
          <mxGeometry x="-12" y="170" width="60" height="30" as="geometry" />
        </mxCell>
        <mxCell id="gOTSkg0luQZno4KXuptD-9" value="" style="rounded=0;whiteSpace=wrap;html=1;" vertex="1" parent="1">
          <mxGeometry x="55" y="172.5" width="194" height="25" as="geometry" />
        </mxCell>
        <mxCell id="gOTSkg0luQZno4KXuptD-12" value="Issue:" style="text;html=1;align=center;verticalAlign=middle;whiteSpace=wrap;rounded=0;;fontSize=16;" vertex="1" parent="1">
          <mxGeometry x="-12" y="206" width="60" height="30" as="geometry" />
        </mxCell>
        <mxCell id="gOTSkg0luQZno4KXuptD-13" value="A dropdown box that lets you choose the issue." style="rounded=0;whiteSpace=wrap;html=1;" vertex="1" parent="1">
          <mxGeometry x="55" y="210" width="178" height="27" as="geometry" />
        </mxCell>
        <mxCell id="gOTSkg0luQZno4KXuptD-14" value="Description of what went wrong:" style="text;html=1;align=center;verticalAlign=middle;whiteSpace=wrap;rounded=0;;fontSize=16;" vertex="1" parent="1">
          <mxGeometry x="-12" y="247" width="229" height="30" as="geometry" />
        </mxCell>
        <mxCell id="gOTSkg0luQZno4KXuptD-15" value="" style="rounded=0;whiteSpace=wrap;html=1;" vertex="1" parent="1">
          <mxGeometry x="-12" y="277" width="456" height="106" as="geometry" />
        </mxCell>
        <mxCell id="gOTSkg0luQZno4KXuptD-16" value="Alternatively you can contact us through email (notrealemail@emailsite.com) or though phone (5555555555)" style="text;html=1;align=center;verticalAlign=middle;whiteSpace=wrap;rounded=0;;fontSize=16;" vertex="1" parent="1">
          <mxGeometry x="-43" y="401" width="491" height="71" as="geometry" />
        </mxCell>
      </root>
    </mxGraphModel>
  </diagram>
  <diagram id="mWhjEdERqXn4Da6BEjyh" name="Category pages">
    <mxGraphModel grid="0" page="0" gridSize="10" guides="1" tooltips="1" connect="1" arrows="1" fold="1" pageScale="1" pageWidth="827" pageHeight="1169" math="0" shadow="0">
      <root>
        <mxCell id="0" />
        <mxCell id="1" parent="0" />
        <mxCell id="qNbQul-dFzZ_JnN7R4oM-1" value="" style="rounded=0;whiteSpace=wrap;html=1;" vertex="1" parent="1">
          <mxGeometry x="-91" y="-84" width="587" height="680" as="geometry" />
        </mxCell>
        <mxCell id="qNbQul-dFzZ_JnN7R4oM-2" value="Category pages" style="text;html=1;align=center;verticalAlign=middle;whiteSpace=wrap;rounded=0;;fontSize=16;" vertex="1" parent="1">
          <mxGeometry x="-91" y="-137" width="133" height="30" as="geometry" />
        </mxCell>
        <mxCell id="qNbQul-dFzZ_JnN7R4oM-3" value="Navbar (full on Home page)" style="rounded=0;whiteSpace=wrap;html=1;" vertex="1" parent="1">
          <mxGeometry x="-91" y="-84" width="587" height="60" as="geometry" />
        </mxCell>
        <mxCell id="qNbQul-dFzZ_JnN7R4oM-4" value="Footer" style="rounded=0;whiteSpace=wrap;html=1;" vertex="1" parent="1">
          <mxGeometry x="-91" y="536" width="587" height="60" as="geometry" />
        </mxCell>
        <mxCell id="qNbQul-dFzZ_JnN7R4oM-5" value="(The category type here)" style="text;html=1;align=center;verticalAlign=middle;whiteSpace=wrap;rounded=0;;fontSize=16;" vertex="1" parent="1">
          <mxGeometry x="-70" y="-11" width="148" height="46" as="geometry" />
        </mxCell>
        <mxCell id="qNbQul-dFzZ_JnN7R4oM-6" value="" style="rounded=0;whiteSpace=wrap;html=1;" vertex="1" parent="1">
          <mxGeometry x="-44" y="35" width="140" height="171" as="geometry" />
        </mxCell>
        <mxCell id="qNbQul-dFzZ_JnN7R4oM-7" value="Picture of phone" style="rounded=0;whiteSpace=wrap;html=1;" vertex="1" parent="1">
          <mxGeometry x="-34" y="42" width="120" height="80" as="geometry" />
        </mxCell>
        <mxCell id="qNbQul-dFzZ_JnN7R4oM-9" value="Description of phone" style="text;html=1;align=center;verticalAlign=middle;whiteSpace=wrap;rounded=0;;fontSize=12;" vertex="1" parent="1">
          <mxGeometry x="-32.5" y="130" width="114.5" height="66" as="geometry" />
        </mxCell>
        <mxCell id="qNbQul-dFzZ_JnN7R4oM-10" value="These are cards --&amp;gt;" style="text;html=1;align=center;verticalAlign=middle;whiteSpace=wrap;rounded=0;;fontSize=16;" vertex="1" parent="1">
          <mxGeometry x="-247" y="100" width="153" height="30" as="geometry" />
        </mxCell>
        <mxCell id="qNbQul-dFzZ_JnN7R4oM-17" value="" style="rounded=0;whiteSpace=wrap;html=1;" vertex="1" parent="1">
          <mxGeometry x="313" y="35" width="140" height="171" as="geometry" />
        </mxCell>
        <mxCell id="qNbQul-dFzZ_JnN7R4oM-18" value="Picture of phone" style="rounded=0;whiteSpace=wrap;html=1;" vertex="1" parent="1">
          <mxGeometry x="323" y="42" width="120" height="80" as="geometry" />
        </mxCell>
        <mxCell id="qNbQul-dFzZ_JnN7R4oM-19" value="Description of phone" style="text;html=1;align=center;verticalAlign=middle;whiteSpace=wrap;rounded=0;;fontSize=12;" vertex="1" parent="1">
          <mxGeometry x="324.5" y="130" width="114.5" height="66" as="geometry" />
        </mxCell>
        <mxCell id="qNbQul-dFzZ_JnN7R4oM-20" value="" style="rounded=0;whiteSpace=wrap;html=1;" vertex="1" parent="1">
          <mxGeometry x="132.5" y="35" width="140" height="171" as="geometry" />
        </mxCell>
        <mxCell id="qNbQul-dFzZ_JnN7R4oM-21" value="Picture of phone" style="rounded=0;whiteSpace=wrap;html=1;" vertex="1" parent="1">
          <mxGeometry x="142.5" y="42" width="120" height="80" as="geometry" />
        </mxCell>
        <mxCell id="qNbQul-dFzZ_JnN7R4oM-22" value="Description of phone" style="text;html=1;align=center;verticalAlign=middle;whiteSpace=wrap;rounded=0;;fontSize=12;" vertex="1" parent="1">
          <mxGeometry x="144" y="130" width="114.5" height="66" as="geometry" />
        </mxCell>
        <mxCell id="qNbQul-dFzZ_JnN7R4oM-23" value="" style="rounded=0;whiteSpace=wrap;html=1;" vertex="1" parent="1">
          <mxGeometry x="-44" y="217" width="140" height="171" as="geometry" />
        </mxCell>
        <mxCell id="qNbQul-dFzZ_JnN7R4oM-24" value="Picture of phone" style="rounded=0;whiteSpace=wrap;html=1;" vertex="1" parent="1">
          <mxGeometry x="-34" y="224" width="120" height="80" as="geometry" />
        </mxCell>
        <mxCell id="qNbQul-dFzZ_JnN7R4oM-25" value="Description of phone" style="text;html=1;align=center;verticalAlign=middle;whiteSpace=wrap;rounded=0;;fontSize=12;" vertex="1" parent="1">
          <mxGeometry x="-32.5" y="312" width="114.5" height="66" as="geometry" />
        </mxCell>
        <mxCell id="qNbQul-dFzZ_JnN7R4oM-26" value="" style="rounded=0;whiteSpace=wrap;html=1;" vertex="1" parent="1">
          <mxGeometry x="132.5" y="217" width="140" height="171" as="geometry" />
        </mxCell>
        <mxCell id="qNbQul-dFzZ_JnN7R4oM-27" value="Picture of phone" style="rounded=0;whiteSpace=wrap;html=1;" vertex="1" parent="1">
          <mxGeometry x="142.5" y="224" width="120" height="80" as="geometry" />
        </mxCell>
        <mxCell id="qNbQul-dFzZ_JnN7R4oM-28" value="Description of phone" style="text;html=1;align=center;verticalAlign=middle;whiteSpace=wrap;rounded=0;;fontSize=12;" vertex="1" parent="1">
          <mxGeometry x="144" y="312" width="114.5" height="66" as="geometry" />
        </mxCell>
        <mxCell id="qNbQul-dFzZ_JnN7R4oM-29" value="" style="rounded=0;whiteSpace=wrap;html=1;" vertex="1" parent="1">
          <mxGeometry x="313" y="217" width="140" height="171" as="geometry" />
        </mxCell>
        <mxCell id="qNbQul-dFzZ_JnN7R4oM-30" value="Picture of phone" style="rounded=0;whiteSpace=wrap;html=1;" vertex="1" parent="1">
          <mxGeometry x="323" y="224" width="120" height="80" as="geometry" />
        </mxCell>
        <mxCell id="qNbQul-dFzZ_JnN7R4oM-31" value="Description of phone" style="text;html=1;align=center;verticalAlign=middle;whiteSpace=wrap;rounded=0;;fontSize=12;" vertex="1" parent="1">
          <mxGeometry x="324.5" y="312" width="114.5" height="66" as="geometry" />
        </mxCell>
        <mxCell id="qNbQul-dFzZ_JnN7R4oM-33" value="" style="rounded=0;whiteSpace=wrap;html=1;" vertex="1" parent="1">
          <mxGeometry x="-44" y="399" width="140" height="137" as="geometry" />
        </mxCell>
        <mxCell id="qNbQul-dFzZ_JnN7R4oM-34" value="Picture of phone" style="rounded=0;whiteSpace=wrap;html=1;" vertex="1" parent="1">
          <mxGeometry x="-34" y="408" width="120" height="72" as="geometry" />
        </mxCell>
        <mxCell id="qNbQul-dFzZ_JnN7R4oM-35" value="Description of phone" style="text;html=1;align=center;verticalAlign=middle;whiteSpace=wrap;rounded=0;;fontSize=12;" vertex="1" parent="1">
          <mxGeometry x="-33" y="490" width="117" height="47" as="geometry" />
        </mxCell>
        <mxCell id="qNbQul-dFzZ_JnN7R4oM-36" value="" style="rounded=0;whiteSpace=wrap;html=1;" vertex="1" parent="1">
          <mxGeometry x="132.5" y="399" width="140" height="137" as="geometry" />
        </mxCell>
        <mxCell id="qNbQul-dFzZ_JnN7R4oM-37" value="Picture of phone" style="rounded=0;whiteSpace=wrap;html=1;" vertex="1" parent="1">
          <mxGeometry x="142.5" y="408" width="120" height="72" as="geometry" />
        </mxCell>
        <mxCell id="qNbQul-dFzZ_JnN7R4oM-38" value="Description of phone" style="text;html=1;align=center;verticalAlign=middle;whiteSpace=wrap;rounded=0;;fontSize=12;" vertex="1" parent="1">
          <mxGeometry x="143.5" y="490" width="117" height="47" as="geometry" />
        </mxCell>
        <mxCell id="qNbQul-dFzZ_JnN7R4oM-39" value="" style="rounded=0;whiteSpace=wrap;html=1;" vertex="1" parent="1">
          <mxGeometry x="311.75" y="399" width="140" height="137" as="geometry" />
        </mxCell>
        <mxCell id="qNbQul-dFzZ_JnN7R4oM-40" value="Picture of phone" style="rounded=0;whiteSpace=wrap;html=1;" vertex="1" parent="1">
          <mxGeometry x="321.75" y="408" width="120" height="72" as="geometry" />
        </mxCell>
        <mxCell id="qNbQul-dFzZ_JnN7R4oM-41" value="Description of phone" style="text;html=1;align=center;verticalAlign=middle;whiteSpace=wrap;rounded=0;;fontSize=12;" vertex="1" parent="1">
          <mxGeometry x="322.75" y="490" width="117" height="47" as="geometry" />
        </mxCell>
        <mxCell id="qNbQul-dFzZ_JnN7R4oM-42" value="Scroll down to find more (footer will be at the end of the page not at the bottom of the screen)" style="text;html=1;align=center;verticalAlign=middle;whiteSpace=wrap;rounded=0;;fontSize=16;" vertex="1" parent="1">
          <mxGeometry x="93.75" y="608" width="215" height="79" as="geometry" />
        </mxCell>
      </root>
    </mxGraphModel>
  </diagram>
  <diagram id="FB4hmMKqrwhnoJkXc2Fm" name="Login / Sign up page">
    <mxGraphModel grid="0" page="0" gridSize="10" guides="1" tooltips="1" connect="1" arrows="1" fold="1" pageScale="1" pageWidth="827" pageHeight="1169" math="0" shadow="0">
      <root>
        <mxCell id="0" />
        <mxCell id="1" parent="0" />
        <mxCell id="Q6-p6mUPjxA83mHE6kSp-1" value="" style="rounded=0;whiteSpace=wrap;html=1;" vertex="1" parent="1">
          <mxGeometry x="-88" y="-102" width="579" height="682" as="geometry" />
        </mxCell>
        <mxCell id="Q6-p6mUPjxA83mHE6kSp-2" value="Navbar (full on home page)" style="rounded=0;whiteSpace=wrap;html=1;" vertex="1" parent="1">
          <mxGeometry x="-88" y="-102" width="579" height="60" as="geometry" />
        </mxCell>
        <mxCell id="Q6-p6mUPjxA83mHE6kSp-3" value="Footer" style="rounded=0;whiteSpace=wrap;html=1;" vertex="1" parent="1">
          <mxGeometry x="-88" y="500" width="579" height="80" as="geometry" />
        </mxCell>
        <mxCell id="Q6-p6mUPjxA83mHE6kSp-4" value="Login" style="text;html=1;align=center;verticalAlign=middle;whiteSpace=wrap;rounded=0;;fontSize=16;" vertex="1" parent="1">
          <mxGeometry x="-65" y="-8" width="60" height="30" as="geometry" />
        </mxCell>
        <mxCell id="Q6-p6mUPjxA83mHE6kSp-5" value="Username:" style="text;html=1;align=center;verticalAlign=middle;whiteSpace=wrap;rounded=0;;fontSize=16;" vertex="1" parent="1">
          <mxGeometry x="-65" y="32" width="60" height="30" as="geometry" />
        </mxCell>
        <mxCell id="Q6-p6mUPjxA83mHE6kSp-6" value="" style="rounded=0;whiteSpace=wrap;html=1;" vertex="1" parent="1">
          <mxGeometry x="13" y="34" width="120" height="26" as="geometry" />
        </mxCell>
        <mxCell id="Q6-p6mUPjxA83mHE6kSp-7" value="Password:" style="text;html=1;align=center;verticalAlign=middle;whiteSpace=wrap;rounded=0;;fontSize=16;" vertex="1" parent="1">
          <mxGeometry x="-65" y="76" width="60" height="30" as="geometry" />
        </mxCell>
        <mxCell id="Q6-p6mUPjxA83mHE6kSp-8" value="Hidden text version" style="rounded=0;whiteSpace=wrap;html=1;" vertex="1" parent="1">
          <mxGeometry x="13" y="78" width="120" height="29" as="geometry" />
        </mxCell>
        <mxCell id="Q6-p6mUPjxA83mHE6kSp-10" value="Login" style="rounded=0;whiteSpace=wrap;html=1;" vertex="1" parent="1">
          <mxGeometry x="-68" y="124" width="74" height="27" as="geometry" />
        </mxCell>
        <mxCell id="Q6-p6mUPjxA83mHE6kSp-11" value="Sign up" style="text;html=1;align=center;verticalAlign=middle;whiteSpace=wrap;rounded=0;;fontSize=16;" vertex="1" parent="1">
          <mxGeometry x="-65" y="191" width="60" height="30" as="geometry" />
        </mxCell>
        <mxCell id="Q6-p6mUPjxA83mHE6kSp-12" value="Username:" style="text;html=1;align=center;verticalAlign=middle;whiteSpace=wrap;rounded=0;;fontSize=16;" vertex="1" parent="1">
          <mxGeometry x="-65" y="234" width="60" height="30" as="geometry" />
        </mxCell>
        <mxCell id="Q6-p6mUPjxA83mHE6kSp-13" value="" style="rounded=0;whiteSpace=wrap;html=1;" vertex="1" parent="1">
          <mxGeometry x="17" y="237" width="120" height="27" as="geometry" />
        </mxCell>
        <mxCell id="Q6-p6mUPjxA83mHE6kSp-14" value="Password:" style="text;html=1;align=center;verticalAlign=middle;whiteSpace=wrap;rounded=0;;fontSize=16;" vertex="1" parent="1">
          <mxGeometry x="-65" y="273" width="60" height="30" as="geometry" />
        </mxCell>
        <mxCell id="Q6-p6mUPjxA83mHE6kSp-15" value="Hidden text version" style="rounded=0;whiteSpace=wrap;html=1;" vertex="1" parent="1">
          <mxGeometry x="17" y="277" width="120" height="27" as="geometry" />
        </mxCell>
        <mxCell id="Q6-p6mUPjxA83mHE6kSp-16" value="Confirm password:" style="text;html=1;align=center;verticalAlign=middle;whiteSpace=wrap;rounded=0;;fontSize=16;" vertex="1" parent="1">
          <mxGeometry x="-65" y="314" width="60" height="30" as="geometry" />
        </mxCell>
        <mxCell id="Q6-p6mUPjxA83mHE6kSp-17" value="Hidden text version" style="rounded=0;whiteSpace=wrap;html=1;" vertex="1" parent="1">
          <mxGeometry x="17" y="317" width="120" height="27" as="geometry" />
        </mxCell>
        <mxCell id="Q6-p6mUPjxA83mHE6kSp-18" value="Email:" style="text;html=1;align=center;verticalAlign=middle;whiteSpace=wrap;rounded=0;;fontSize=16;" vertex="1" parent="1">
          <mxGeometry x="-68" y="361" width="60" height="30" as="geometry" />
        </mxCell>
        <mxCell id="Q6-p6mUPjxA83mHE6kSp-19" value="" style="rounded=0;whiteSpace=wrap;html=1;" vertex="1" parent="1">
          <mxGeometry x="17" y="361" width="120" height="27" as="geometry" />
        </mxCell>
        <mxCell id="Q6-p6mUPjxA83mHE6kSp-20" value="" style="rounded=0;whiteSpace=wrap;html=1;" vertex="1" parent="1">
          <mxGeometry x="-60" y="401" width="22" height="20" as="geometry" />
        </mxCell>
        <mxCell id="Q6-p6mUPjxA83mHE6kSp-22" value="Do you want to receive emails about upcoming sales" style="text;html=1;align=center;verticalAlign=middle;whiteSpace=wrap;rounded=0;;fontSize=12;" vertex="1" parent="1">
          <mxGeometry x="-35" y="396" width="159" height="30" as="geometry" />
        </mxCell>
        <mxCell id="Q6-p6mUPjxA83mHE6kSp-23" value="Sign up" style="rounded=0;whiteSpace=wrap;html=1;" vertex="1" parent="1">
          <mxGeometry x="-68" y="431" width="77" height="30" as="geometry" />
        </mxCell>
        <mxCell id="Q6-p6mUPjxA83mHE6kSp-25" value="Forgot my username / password" style="text;html=1;align=center;verticalAlign=middle;whiteSpace=wrap;rounded=0;;fontSize=10;" vertex="1" parent="1">
          <mxGeometry x="25" y="122.5" width="107" height="30" as="geometry" />
        </mxCell>
      </root>
    </mxGraphModel>
  </diagram>
  <diagram id="ZmaYch3wh9bKDJH_SSHm" name="Phone page">
    <mxGraphModel grid="0" page="0" gridSize="10" guides="1" tooltips="1" connect="1" arrows="1" fold="1" pageScale="1" pageWidth="827" pageHeight="1169" math="0" shadow="0">
      <root>
        <mxCell id="0" />
        <mxCell id="1" parent="0" />
        <mxCell id="0CbI0ZOK11JoenwjkDYB-1" value="" style="rounded=0;whiteSpace=wrap;html=1;" vertex="1" parent="1">
          <mxGeometry x="-102" y="-156" width="622" height="748" as="geometry" />
        </mxCell>
        <mxCell id="0CbI0ZOK11JoenwjkDYB-2" value="Navbar (Full on homepage)" style="rounded=0;whiteSpace=wrap;html=1;" vertex="1" parent="1">
          <mxGeometry x="-102" y="-156" width="622" height="60" as="geometry" />
        </mxCell>
        <mxCell id="0CbI0ZOK11JoenwjkDYB-3" value="Footer" style="rounded=0;whiteSpace=wrap;html=1;" vertex="1" parent="1">
          <mxGeometry x="-102" y="500" width="622" height="95" as="geometry" />
        </mxCell>
        <mxCell id="0CbI0ZOK11JoenwjkDYB-4" value="Picture of phone" style="rounded=0;whiteSpace=wrap;html=1;" vertex="1" parent="1">
          <mxGeometry x="-80" y="-78" width="350" height="330" as="geometry" />
        </mxCell>
        <mxCell id="0CbI0ZOK11JoenwjkDYB-5" value="Name of phone" style="text;html=1;align=center;verticalAlign=middle;whiteSpace=wrap;rounded=0;;fontSize=20;" vertex="1" parent="1">
          <mxGeometry x="285" y="-78" width="225" height="48" as="geometry" />
        </mxCell>
        <mxCell id="0CbI0ZOK11JoenwjkDYB-6" value="Some stats about the phone like how much storage it has, how longs its battery life is, its rating, etc." style="text;html=1;align=center;verticalAlign=middle;whiteSpace=wrap;rounded=0;;fontSize=16;" vertex="1" parent="1">
          <mxGeometry x="285" y="-30" width="221" height="285" as="geometry" />
        </mxCell>
        <mxCell id="0CbI0ZOK11JoenwjkDYB-7" value="Text box&amp;nbsp;" style="rounded=0;whiteSpace=wrap;html=1;" vertex="1" parent="1">
          <mxGeometry x="-80" y="301" width="454" height="35" as="geometry" />
        </mxCell>
        <mxCell id="0CbI0ZOK11JoenwjkDYB-8" value="Reviews" style="text;html=1;align=center;verticalAlign=middle;whiteSpace=wrap;rounded=0;;fontSize=16;" vertex="1" parent="1">
          <mxGeometry x="-80" y="264" width="60" height="30" as="geometry" />
        </mxCell>
        <mxCell id="0CbI0ZOK11JoenwjkDYB-9" value="" style="verticalLabelPosition=bottom;verticalAlign=top;html=1;shape=mxgraph.basic.tick" vertex="1" parent="1">
          <mxGeometry x="382" y="301" width="35" height="35" as="geometry" />
        </mxCell>
        <mxCell id="0CbI0ZOK11JoenwjkDYB-10" value="" style="verticalLabelPosition=bottom;verticalAlign=top;html=1;shape=mxgraph.basic.x" vertex="1" parent="1">
          <mxGeometry x="425" y="301" width="35" height="35" as="geometry" />
        </mxCell>
        <mxCell id="0CbI0ZOK11JoenwjkDYB-11" value="Was it good or bad" style="text;html=1;align=center;verticalAlign=middle;whiteSpace=wrap;rounded=0;;fontSize=10;" vertex="1" parent="1">
          <mxGeometry x="435" y="269" width="60" height="30" as="geometry" />
        </mxCell>
        <mxCell id="0CbI0ZOK11JoenwjkDYB-13" value="" style="ellipse;whiteSpace=wrap;html=1;aspect=fixed;" vertex="1" parent="1">
          <mxGeometry x="468" y="301" width="35" height="35" as="geometry" />
        </mxCell>
        <mxCell id="0CbI0ZOK11JoenwjkDYB-17" value="" style="endArrow=classic;html=1;rounded=0;fontSize=12;startSize=8;endSize=8;" edge="1" parent="1">
          <mxGeometry width="50" height="50" relative="1" as="geometry">
            <mxPoint x="473.5" y="318" as="sourcePoint" />
            <mxPoint x="497.5" y="318" as="targetPoint" />
          </mxGeometry>
        </mxCell>
        <mxCell id="0CbI0ZOK11JoenwjkDYB-18" value="" style="rounded=0;whiteSpace=wrap;html=1;" vertex="1" parent="1">
          <mxGeometry x="-80" y="351" width="590" height="60" as="geometry" />
        </mxCell>
        <mxCell id="0CbI0ZOK11JoenwjkDYB-19" value="(Username)" style="text;html=1;align=center;verticalAlign=middle;whiteSpace=wrap;rounded=0;;fontSize=11;" vertex="1" parent="1">
          <mxGeometry x="-73" y="356" width="60" height="16" as="geometry" />
        </mxCell>
        <mxCell id="0CbI0ZOK11JoenwjkDYB-20" value="(Review about the phone)&amp;nbsp;" style="text;html=1;align=center;verticalAlign=middle;whiteSpace=wrap;rounded=0;;fontSize=16;" vertex="1" parent="1">
          <mxGeometry x="-73" y="374" width="212" height="30" as="geometry" />
        </mxCell>
        <mxCell id="0CbI0ZOK11JoenwjkDYB-21" value="" style="verticalLabelPosition=bottom;verticalAlign=top;html=1;shape=mxgraph.basic.tick" vertex="1" parent="1">
          <mxGeometry x="380" y="363.5" width="35" height="35" as="geometry" />
        </mxCell>
        <mxCell id="0CbI0ZOK11JoenwjkDYB-22" value="" style="verticalLabelPosition=bottom;verticalAlign=top;html=1;shape=mxgraph.basic.x" vertex="1" parent="1">
          <mxGeometry x="425" y="363.5" width="35" height="35" as="geometry" />
        </mxCell>
        <mxCell id="0CbI0ZOK11JoenwjkDYB-23" value="One of these will be coloured in to display what that user thought of the phone" style="text;html=1;align=center;verticalAlign=middle;whiteSpace=wrap;rounded=0;;fontSize=8;" vertex="1" parent="1">
          <mxGeometry x="286" y="364" width="88" height="30" as="geometry" />
        </mxCell>
        <mxCell id="0CbI0ZOK11JoenwjkDYB-24" value="" style="rounded=0;whiteSpace=wrap;html=1;" vertex="1" parent="1">
          <mxGeometry x="-80" y="436" width="590" height="60" as="geometry" />
        </mxCell>
        <mxCell id="0CbI0ZOK11JoenwjkDYB-25" value="(Username)" style="text;html=1;align=center;verticalAlign=middle;whiteSpace=wrap;rounded=0;;fontSize=11;" vertex="1" parent="1">
          <mxGeometry x="-73" y="441" width="60" height="16" as="geometry" />
        </mxCell>
        <mxCell id="0CbI0ZOK11JoenwjkDYB-26" value="(Review about the phone)&amp;nbsp;" style="text;html=1;align=center;verticalAlign=middle;whiteSpace=wrap;rounded=0;;fontSize=16;" vertex="1" parent="1">
          <mxGeometry x="-73" y="459" width="212" height="30" as="geometry" />
        </mxCell>
        <mxCell id="0CbI0ZOK11JoenwjkDYB-27" value="" style="verticalLabelPosition=bottom;verticalAlign=top;html=1;shape=mxgraph.basic.tick" vertex="1" parent="1">
          <mxGeometry x="380" y="448.5" width="35" height="35" as="geometry" />
        </mxCell>
        <mxCell id="0CbI0ZOK11JoenwjkDYB-28" value="" style="verticalLabelPosition=bottom;verticalAlign=top;html=1;shape=mxgraph.basic.x" vertex="1" parent="1">
          <mxGeometry x="425" y="448.5" width="35" height="35" as="geometry" />
        </mxCell>
        <mxCell id="0CbI0ZOK11JoenwjkDYB-29" value="One of these will be coloured in to display what that user thought of the phone" style="text;html=1;align=center;verticalAlign=middle;whiteSpace=wrap;rounded=0;;fontSize=8;" vertex="1" parent="1">
          <mxGeometry x="286" y="449" width="88" height="30" as="geometry" />
        </mxCell>
        <mxCell id="0CbI0ZOK11JoenwjkDYB-30" value="Can scroll down to find more reviews&amp;nbsp;" style="text;html=1;align=center;verticalAlign=middle;whiteSpace=wrap;rounded=0;;fontSize=16;" vertex="1" parent="1">
          <mxGeometry x="161" y="611" width="96" height="90" as="geometry" />
        </mxCell>
        <mxCell id="iQW-WB0-6XZrYjL3mqGk-1" value="Phone/ Assesory page" style="text;html=1;align=center;verticalAlign=middle;whiteSpace=wrap;rounded=0;;fontSize=16;" vertex="1" parent="1">
          <mxGeometry x="-102" y="-243" width="165" height="30" as="geometry" />
        </mxCell>
        <mxCell id="X6J9cLq40A2Sc6m982mo-1" value="Using phone here but assessory will be very similar" style="text;html=1;align=center;verticalAlign=middle;whiteSpace=wrap;rounded=0;;fontSize=12;" vertex="1" parent="1">
          <mxGeometry x="-100" y="-204" width="158" height="30" as="geometry" />
        </mxCell>
        <mxCell id="2MD2ARYdmOMC5v6o1aYN-1" value="Add to basket" style="rounded=0;whiteSpace=wrap;html=1;" vertex="1" parent="1">
          <mxGeometry x="288" y="227" width="77" height="25" as="geometry" />
        </mxCell>
      </root>
    </mxGraphModel>
  </diagram>
  <diagram id="HOWg-fxnXxlKgeUe5kh1" name="Basket page">
    <mxGraphModel grid="0" page="0" gridSize="10" guides="1" tooltips="1" connect="1" arrows="1" fold="1" pageScale="1" pageWidth="827" pageHeight="1169" math="0" shadow="0">
      <root>
        <mxCell id="0" />
        <mxCell id="1" parent="0" />
        <mxCell id="l3Zq-ERsJNq0asMeNxPJ-1" value="" style="rounded=0;whiteSpace=wrap;html=1;" vertex="1" parent="1">
          <mxGeometry x="-92" y="-84" width="618" height="685" as="geometry" />
        </mxCell>
        <mxCell id="l3Zq-ERsJNq0asMeNxPJ-2" value="Basket page" style="text;html=1;align=center;verticalAlign=middle;whiteSpace=wrap;rounded=0;;fontSize=16;" vertex="1" parent="1">
          <mxGeometry x="-65" y="-143" width="116" height="30" as="geometry" />
        </mxCell>
        <mxCell id="l3Zq-ERsJNq0asMeNxPJ-3" value="Navbar (Full on home page)" style="rounded=0;whiteSpace=wrap;html=1;" vertex="1" parent="1">
          <mxGeometry x="-92" y="-84" width="618" height="75" as="geometry" />
        </mxCell>
        <mxCell id="l3Zq-ERsJNq0asMeNxPJ-4" value="Footer" style="rounded=0;whiteSpace=wrap;html=1;" vertex="1" parent="1">
          <mxGeometry x="-92" y="498" width="619" height="103" as="geometry" />
        </mxCell>
        <mxCell id="l3Zq-ERsJNq0asMeNxPJ-5" value="Items in your basket" style="text;html=1;align=center;verticalAlign=middle;whiteSpace=wrap;rounded=0;;fontSize=16;" vertex="1" parent="1">
          <mxGeometry x="-79" y="7" width="156" height="30" as="geometry" />
        </mxCell>
        <mxCell id="l3Zq-ERsJNq0asMeNxPJ-6" value="" style="rounded=0;whiteSpace=wrap;html=1;" vertex="1" parent="1">
          <mxGeometry x="-79" y="45" width="287" height="94" as="geometry" />
        </mxCell>
        <mxCell id="l3Zq-ERsJNq0asMeNxPJ-7" value="Picture of phone" style="rounded=0;whiteSpace=wrap;html=1;" vertex="1" parent="1">
          <mxGeometry x="-73" y="50" width="143" height="83" as="geometry" />
        </mxCell>
        <mxCell id="l3Zq-ERsJNq0asMeNxPJ-8" value="Brief description&amp;nbsp;&amp;nbsp;" style="text;html=1;align=center;verticalAlign=middle;whiteSpace=wrap;rounded=0;;fontSize=12;" vertex="1" parent="1">
          <mxGeometry x="95" y="59" width="102" height="44" as="geometry" />
        </mxCell>
        <mxCell id="l3Zq-ERsJNq0asMeNxPJ-9" value="Price: £??.??" style="text;html=1;align=center;verticalAlign=middle;whiteSpace=wrap;rounded=0;;fontSize=14;" vertex="1" parent="1">
          <mxGeometry x="92" y="103" width="60" height="30" as="geometry" />
        </mxCell>
        <mxCell id="l3Zq-ERsJNq0asMeNxPJ-10" value="Cost: £??.??" style="text;html=1;align=center;verticalAlign=middle;whiteSpace=wrap;rounded=0;;fontSize=16;" vertex="1" parent="1">
          <mxGeometry x="168" y="9" width="60" height="30" as="geometry" />
        </mxCell>
        <mxCell id="l3Zq-ERsJNq0asMeNxPJ-11" value="Check-out" style="rounded=0;whiteSpace=wrap;html=1;" vertex="1" parent="1">
          <mxGeometry x="388" y="7" width="95" height="34" as="geometry" />
        </mxCell>
        <mxCell id="l3Zq-ERsJNq0asMeNxPJ-12" value="" style="rounded=0;whiteSpace=wrap;html=1;" vertex="1" parent="1">
          <mxGeometry x="222" y="45" width="287" height="94" as="geometry" />
        </mxCell>
        <mxCell id="l3Zq-ERsJNq0asMeNxPJ-13" value="Picture of phone" style="rounded=0;whiteSpace=wrap;html=1;" vertex="1" parent="1">
          <mxGeometry x="228" y="50" width="143" height="83" as="geometry" />
        </mxCell>
        <mxCell id="l3Zq-ERsJNq0asMeNxPJ-14" value="Brief description&amp;nbsp;&amp;nbsp;" style="text;html=1;align=center;verticalAlign=middle;whiteSpace=wrap;rounded=0;;fontSize=12;" vertex="1" parent="1">
          <mxGeometry x="396" y="59" width="102" height="44" as="geometry" />
        </mxCell>
        <mxCell id="l3Zq-ERsJNq0asMeNxPJ-15" value="Price: £??.??" style="text;html=1;align=center;verticalAlign=middle;whiteSpace=wrap;rounded=0;;fontSize=14;" vertex="1" parent="1">
          <mxGeometry x="409" y="103" width="60" height="30" as="geometry" />
        </mxCell>
        <mxCell id="l3Zq-ERsJNq0asMeNxPJ-16" value="" style="rounded=0;whiteSpace=wrap;html=1;" vertex="1" parent="1">
          <mxGeometry x="-79" y="147" width="287" height="94" as="geometry" />
        </mxCell>
        <mxCell id="l3Zq-ERsJNq0asMeNxPJ-17" value="Picture of phone" style="rounded=0;whiteSpace=wrap;html=1;" vertex="1" parent="1">
          <mxGeometry x="-73" y="152" width="143" height="83" as="geometry" />
        </mxCell>
        <mxCell id="l3Zq-ERsJNq0asMeNxPJ-18" value="Brief description&amp;nbsp;&amp;nbsp;" style="text;html=1;align=center;verticalAlign=middle;whiteSpace=wrap;rounded=0;;fontSize=12;" vertex="1" parent="1">
          <mxGeometry x="95" y="161" width="102" height="44" as="geometry" />
        </mxCell>
        <mxCell id="l3Zq-ERsJNq0asMeNxPJ-19" value="Price: £??.??" style="text;html=1;align=center;verticalAlign=middle;whiteSpace=wrap;rounded=0;;fontSize=14;" vertex="1" parent="1">
          <mxGeometry x="108" y="205" width="60" height="30" as="geometry" />
        </mxCell>
        <mxCell id="l3Zq-ERsJNq0asMeNxPJ-20" value="" style="rounded=0;whiteSpace=wrap;html=1;" vertex="1" parent="1">
          <mxGeometry x="222" y="147" width="287" height="94" as="geometry" />
        </mxCell>
        <mxCell id="l3Zq-ERsJNq0asMeNxPJ-21" value="Picture of phone" style="rounded=0;whiteSpace=wrap;html=1;" vertex="1" parent="1">
          <mxGeometry x="228" y="152" width="143" height="83" as="geometry" />
        </mxCell>
        <mxCell id="l3Zq-ERsJNq0asMeNxPJ-22" value="Brief description&amp;nbsp;&amp;nbsp;" style="text;html=1;align=center;verticalAlign=middle;whiteSpace=wrap;rounded=0;;fontSize=12;" vertex="1" parent="1">
          <mxGeometry x="396" y="161" width="102" height="44" as="geometry" />
        </mxCell>
        <mxCell id="l3Zq-ERsJNq0asMeNxPJ-23" value="Price: £??.??" style="text;html=1;align=center;verticalAlign=middle;whiteSpace=wrap;rounded=0;;fontSize=14;" vertex="1" parent="1">
          <mxGeometry x="409" y="205" width="60" height="30" as="geometry" />
        </mxCell>
        <mxCell id="l3Zq-ERsJNq0asMeNxPJ-24" value="" style="rounded=0;whiteSpace=wrap;html=1;" vertex="1" parent="1">
          <mxGeometry x="-79" y="249" width="287" height="94" as="geometry" />
        </mxCell>
        <mxCell id="l3Zq-ERsJNq0asMeNxPJ-25" value="Picture of phone" style="rounded=0;whiteSpace=wrap;html=1;" vertex="1" parent="1">
          <mxGeometry x="-73" y="254" width="143" height="83" as="geometry" />
        </mxCell>
        <mxCell id="l3Zq-ERsJNq0asMeNxPJ-26" value="Brief description&amp;nbsp;&amp;nbsp;" style="text;html=1;align=center;verticalAlign=middle;whiteSpace=wrap;rounded=0;;fontSize=12;" vertex="1" parent="1">
          <mxGeometry x="95" y="263" width="102" height="44" as="geometry" />
        </mxCell>
        <mxCell id="l3Zq-ERsJNq0asMeNxPJ-27" value="Price: £??.??" style="text;html=1;align=center;verticalAlign=middle;whiteSpace=wrap;rounded=0;;fontSize=14;" vertex="1" parent="1">
          <mxGeometry x="108" y="307" width="60" height="30" as="geometry" />
        </mxCell>
        <mxCell id="l3Zq-ERsJNq0asMeNxPJ-28" value="" style="rounded=0;whiteSpace=wrap;html=1;" vertex="1" parent="1">
          <mxGeometry x="222" y="249" width="287" height="94" as="geometry" />
        </mxCell>
        <mxCell id="l3Zq-ERsJNq0asMeNxPJ-29" value="Picture of phone" style="rounded=0;whiteSpace=wrap;html=1;" vertex="1" parent="1">
          <mxGeometry x="228" y="254" width="143" height="83" as="geometry" />
        </mxCell>
        <mxCell id="l3Zq-ERsJNq0asMeNxPJ-30" value="Brief description&amp;nbsp;&amp;nbsp;" style="text;html=1;align=center;verticalAlign=middle;whiteSpace=wrap;rounded=0;;fontSize=12;" vertex="1" parent="1">
          <mxGeometry x="396" y="263" width="102" height="44" as="geometry" />
        </mxCell>
        <mxCell id="l3Zq-ERsJNq0asMeNxPJ-31" value="Price: £??.??" style="text;html=1;align=center;verticalAlign=middle;whiteSpace=wrap;rounded=0;;fontSize=14;" vertex="1" parent="1">
          <mxGeometry x="409" y="307" width="60" height="30" as="geometry" />
        </mxCell>
        <mxCell id="l3Zq-ERsJNq0asMeNxPJ-32" value="" style="rounded=0;whiteSpace=wrap;html=1;" vertex="1" parent="1">
          <mxGeometry x="-79" y="351" width="287" height="94" as="geometry" />
        </mxCell>
        <mxCell id="l3Zq-ERsJNq0asMeNxPJ-33" value="Picture of phone" style="rounded=0;whiteSpace=wrap;html=1;" vertex="1" parent="1">
          <mxGeometry x="-73" y="356" width="143" height="83" as="geometry" />
        </mxCell>
        <mxCell id="l3Zq-ERsJNq0asMeNxPJ-34" value="Brief description&amp;nbsp;&amp;nbsp;" style="text;html=1;align=center;verticalAlign=middle;whiteSpace=wrap;rounded=0;;fontSize=12;" vertex="1" parent="1">
          <mxGeometry x="95" y="365" width="102" height="44" as="geometry" />
        </mxCell>
        <mxCell id="l3Zq-ERsJNq0asMeNxPJ-35" value="Price: £??.??" style="text;html=1;align=center;verticalAlign=middle;whiteSpace=wrap;rounded=0;;fontSize=14;" vertex="1" parent="1">
          <mxGeometry x="108" y="409" width="60" height="30" as="geometry" />
        </mxCell>
        <mxCell id="l3Zq-ERsJNq0asMeNxPJ-36" value="" style="rounded=0;whiteSpace=wrap;html=1;" vertex="1" parent="1">
          <mxGeometry x="222" y="351" width="287" height="94" as="geometry" />
        </mxCell>
        <mxCell id="l3Zq-ERsJNq0asMeNxPJ-37" value="Picture of phone" style="rounded=0;whiteSpace=wrap;html=1;" vertex="1" parent="1">
          <mxGeometry x="228" y="356" width="143" height="83" as="geometry" />
        </mxCell>
        <mxCell id="l3Zq-ERsJNq0asMeNxPJ-38" value="Brief description&amp;nbsp;&amp;nbsp;" style="text;html=1;align=center;verticalAlign=middle;whiteSpace=wrap;rounded=0;;fontSize=12;" vertex="1" parent="1">
          <mxGeometry x="396" y="365" width="102" height="44" as="geometry" />
        </mxCell>
        <mxCell id="l3Zq-ERsJNq0asMeNxPJ-39" value="Price: £??.??" style="text;html=1;align=center;verticalAlign=middle;whiteSpace=wrap;rounded=0;;fontSize=14;" vertex="1" parent="1">
          <mxGeometry x="409" y="409" width="60" height="30" as="geometry" />
        </mxCell>
        <mxCell id="sGqbv4KCqGlfvoH6pIPi-1" value="Scroll down if possible" style="text;html=1;align=center;verticalAlign=middle;whiteSpace=wrap;rounded=0;;fontSize=16;" vertex="1" parent="1">
          <mxGeometry x="188" y="623" width="60" height="30" as="geometry" />
        </mxCell>
        <mxCell id="u-jHCU8VQ_TUfzrjfdn7-1" value="" style="verticalLabelPosition=bottom;verticalAlign=top;html=1;shape=mxgraph.basic.x" vertex="1" parent="1">
          <mxGeometry x="188" y="50" width="16" height="13.5" as="geometry" />
        </mxCell>
        <mxCell id="u-jHCU8VQ_TUfzrjfdn7-2" value="" style="verticalLabelPosition=bottom;verticalAlign=top;html=1;shape=mxgraph.basic.x" vertex="1" parent="1">
          <mxGeometry x="487" y="50" width="16" height="13.5" as="geometry" />
        </mxCell>
        <mxCell id="u-jHCU8VQ_TUfzrjfdn7-4" value="" style="verticalLabelPosition=bottom;verticalAlign=top;html=1;shape=mxgraph.basic.x" vertex="1" parent="1">
          <mxGeometry x="188" y="152" width="16" height="13.5" as="geometry" />
        </mxCell>
        <mxCell id="u-jHCU8VQ_TUfzrjfdn7-5" value="" style="verticalLabelPosition=bottom;verticalAlign=top;html=1;shape=mxgraph.basic.x" vertex="1" parent="1">
          <mxGeometry x="487" y="152" width="16" height="13.5" as="geometry" />
        </mxCell>
        <mxCell id="u-jHCU8VQ_TUfzrjfdn7-6" value="" style="verticalLabelPosition=bottom;verticalAlign=top;html=1;shape=mxgraph.basic.x" vertex="1" parent="1">
          <mxGeometry x="188" y="254" width="16" height="13.5" as="geometry" />
        </mxCell>
        <mxCell id="u-jHCU8VQ_TUfzrjfdn7-7" value="" style="verticalLabelPosition=bottom;verticalAlign=top;html=1;shape=mxgraph.basic.x" vertex="1" parent="1">
          <mxGeometry x="487" y="254" width="16" height="13.5" as="geometry" />
        </mxCell>
        <mxCell id="u-jHCU8VQ_TUfzrjfdn7-8" value="" style="verticalLabelPosition=bottom;verticalAlign=top;html=1;shape=mxgraph.basic.x" vertex="1" parent="1">
          <mxGeometry x="190" y="356" width="16" height="13.5" as="geometry" />
        </mxCell>
        <mxCell id="u-jHCU8VQ_TUfzrjfdn7-9" value="" style="verticalLabelPosition=bottom;verticalAlign=top;html=1;shape=mxgraph.basic.x" vertex="1" parent="1">
          <mxGeometry x="487" y="356" width="16" height="13.5" as="geometry" />
        </mxCell>
      </root>
    </mxGraphModel>
  </diagram>
  <diagram id="nhoBb4iymYz2oN8axa2w" name="Checkout page">
    <mxGraphModel grid="0" page="0" gridSize="10" guides="1" tooltips="1" connect="1" arrows="1" fold="1" pageScale="1" pageWidth="827" pageHeight="1169" math="0" shadow="0">
      <root>
        <mxCell id="0" />
        <mxCell id="1" parent="0" />
        <mxCell id="isDMUwWMky2nkEhgM8pl-1" value="" style="verticalLabelPosition=bottom;verticalAlign=top;html=1;shape=mxgraph.basic.rect;fillColor2=none;strokeWidth=1;size=20;indent=5;" vertex="1" parent="1">
          <mxGeometry x="-46" y="-92" width="532" height="682" as="geometry" />
        </mxCell>
        <mxCell id="isDMUwWMky2nkEhgM8pl-2" value="Checkout page" style="text;html=1;align=center;verticalAlign=middle;whiteSpace=wrap;rounded=0;;fontSize=16;" vertex="1" parent="1">
          <mxGeometry x="-38" y="-142" width="132" height="30" as="geometry" />
        </mxCell>
        <mxCell id="isDMUwWMky2nkEhgM8pl-3" value="Navbar" style="rounded=0;whiteSpace=wrap;html=1;" vertex="1" parent="1">
          <mxGeometry x="-46" y="-92" width="532" height="60" as="geometry" />
        </mxCell>
        <mxCell id="isDMUwWMky2nkEhgM8pl-4" value="Footer" style="rounded=0;whiteSpace=wrap;html=1;" vertex="1" parent="1">
          <mxGeometry x="-46" y="506" width="532" height="84" as="geometry" />
        </mxCell>
        <mxCell id="isDMUwWMky2nkEhgM8pl-6" value="Total cost is: £??.??" style="text;html=1;align=center;verticalAlign=middle;whiteSpace=wrap;rounded=0;;fontSize=24;" vertex="1" parent="1">
          <mxGeometry x="-25" y="-7" width="156" height="30" as="geometry" />
        </mxCell>
        <mxCell id="isDMUwWMky2nkEhgM8pl-7" value="A list of ways to pay" style="rounded=0;whiteSpace=wrap;html=1;" vertex="1" parent="1">
          <mxGeometry x="160" y="43" width="311" height="448" as="geometry" />
        </mxCell>
        <mxCell id="isDMUwWMky2nkEhgM8pl-8" value="All the phones in the basket" style="rounded=0;whiteSpace=wrap;html=1;" vertex="1" parent="1">
          <mxGeometry x="-38" y="43" width="188" height="450" as="geometry" />
        </mxCell>
      </root>
    </mxGraphModel>
  </diagram>
  <diagram id="RvpaIYkq3XLow9nqPy66" name="Forgot my username / password page">
    <mxGraphModel grid="0" page="0" gridSize="10" guides="1" tooltips="1" connect="1" arrows="1" fold="1" pageScale="1" pageWidth="827" pageHeight="1169" math="0" shadow="0">
      <root>
        <mxCell id="0" />
        <mxCell id="1" parent="0" />
        <mxCell id="yVyL31Cf7TSYSGcwqDQP-1" value="" style="rounded=0;whiteSpace=wrap;html=1;" vertex="1" parent="1">
          <mxGeometry x="-93" y="-117" width="596" height="699" as="geometry" />
        </mxCell>
        <mxCell id="yVyL31Cf7TSYSGcwqDQP-2" value="Navbar" style="rounded=0;whiteSpace=wrap;html=1;" vertex="1" parent="1">
          <mxGeometry x="-93" y="-117" width="596" height="60" as="geometry" />
        </mxCell>
        <mxCell id="yVyL31Cf7TSYSGcwqDQP-3" value="Footer" style="rounded=0;whiteSpace=wrap;html=1;" vertex="1" parent="1">
          <mxGeometry x="-93" y="490" width="596" height="92" as="geometry" />
        </mxCell>
        <mxCell id="yVyL31Cf7TSYSGcwqDQP-4" value="Forgot your username / password?" style="text;html=1;align=center;verticalAlign=middle;whiteSpace=wrap;rounded=0;;fontSize=18;" vertex="1" parent="1">
          <mxGeometry x="-72" y="-40" width="188" height="30" as="geometry" />
        </mxCell>
        <mxCell id="yVyL31Cf7TSYSGcwqDQP-5" value="Well don&#39;t worry as you can get access to your account just by entering the email you that you gave with the account." style="text;html=1;align=center;verticalAlign=middle;whiteSpace=wrap;rounded=0;;fontSize=16;" vertex="1" parent="1">
          <mxGeometry x="-77" width="350" height="90" as="geometry" />
        </mxCell>
        <mxCell id="yVyL31Cf7TSYSGcwqDQP-6" value="Email:" style="text;html=1;align=center;verticalAlign=middle;whiteSpace=wrap;rounded=0;;fontSize=16;" vertex="1" parent="1">
          <mxGeometry x="-77" y="86" width="60" height="30" as="geometry" />
        </mxCell>
        <mxCell id="yVyL31Cf7TSYSGcwqDQP-7" value="" style="rounded=0;whiteSpace=wrap;html=1;" vertex="1" parent="1">
          <mxGeometry x="-9" y="86" width="120" height="30" as="geometry" />
        </mxCell>
        <mxCell id="yVyL31Cf7TSYSGcwqDQP-8" value="Submit" style="rounded=0;whiteSpace=wrap;html=1;" vertex="1" parent="1">
          <mxGeometry x="-72" y="129" width="70" height="32" as="geometry" />
        </mxCell>
      </root>
    </mxGraphModel>
  </diagram>
</mxfile>
